<svg version="1.1" id="Layer_1" xmlns="http://www.w3.org/2000/svg" xmlns:xlink="http://www.w3.org/1999/xlink" x="0px" y="0px"
	 width="100%" viewBox="0 0 496 496" enable-background="new 0 0 496 496" xml:space="preserve" style="background: #ffffff;">
<path fill="#000000" opacity="1.000000" stroke="none" 
	d="
M215.727966,133.847122 
	C223.110718,114.563850 230.497421,95.693199 237.682617,76.746147 
	C239.092880,73.027359 241.287598,71.498428 245.178452,71.732323 
	C248.662872,71.941795 252.193085,72.042229 255.660156,71.723534 
	C260.111176,71.314384 262.376038,73.420303 263.851501,77.308235 
	C273.216370,101.985573 282.422882,126.728020 292.237671,151.226212 
	C294.806488,157.638016 294.971497,162.624969 292.214935,169.276718 
	C282.041565,193.825470 272.841492,218.781372 263.515686,243.674179 
	C261.737549,248.420486 259.262604,250.520126 254.031235,250.308746 
	C236.884796,249.615952 240.458389,253.464844 233.759720,235.731079 
	C227.655655,219.571442 221.312881,203.501877 215.057343,187.399582 
	C211.929733,179.348831 208.791840,171.301758 205.585236,163.282333 
	C205.000793,161.820648 204.565720,160.486252 205.412369,159.014999 
	C209.908676,151.201553 212.245193,142.493866 215.727966,133.847122 
M232.216431,173.381546 
	C237.905548,188.121475 243.594666,202.861420 249.764847,218.847687 
	C250.995926,216.578461 251.454437,215.912872 251.740341,215.179962 
	C258.256073,198.477829 264.648773,181.726440 271.340027,165.095123 
	C272.700195,161.714371 272.728821,158.838058 271.452179,155.530731 
	C266.670898,143.144012 262.226288,130.625259 257.308716,118.294266 
	C255.285049,113.219818 253.946655,107.758362 250.328842,102.415894 
	C249.359360,104.701508 248.678772,106.181458 248.096085,107.699005 
	C242.557785,122.122986 237.530899,136.771133 231.314194,150.895859 
	C227.877884,158.703354 227.920319,165.505875 232.216431,173.381546 
z"/>
<path fill="#000000" opacity="1.000000" stroke="none" 
	d="
M189.517242,308.624237 
	C194.294693,296.153137 199.024460,284.083282 203.579727,271.947906 
	C204.602509,269.223175 206.397842,268.419983 208.955978,268.679840 
	C211.586533,268.947021 214.966080,267.383118 216.393631,271.009186 
	C221.557251,284.125244 226.600739,297.288635 231.663208,310.366028 
	C225.303574,313.841278 221.426514,312.615479 219.174927,306.717590 
	C216.460236,299.606567 213.818283,292.467773 211.015915,284.997284 
	C208.485977,286.467590 208.033783,288.623413 207.302917,290.520905 
	C204.972839,296.570160 202.639282,302.621002 200.483566,308.733490 
	C199.011475,312.907532 195.617172,312.053711 192.566345,312.019531 
	C190.754410,311.999268 188.602341,311.940125 189.517242,308.624237 
z"/>
<path fill="#000000" opacity="1.000000" stroke="none" 
	d="
M118.081200,289.802765 
	C115.487076,282.962219 113.045586,276.479126 110.617012,270.030304 
	C118.339142,266.750153 120.543312,267.843964 123.370636,274.900543 
	C126.056961,281.605194 127.992401,288.655273 131.939377,295.587799 
	C135.746140,288.332306 137.720917,281.130707 140.538849,274.281952 
	C143.127518,267.990387 145.659622,266.869324 152.473724,269.284363 
	C153.215286,270.234650 152.783142,271.179871 152.427536,272.104401 
	C147.952698,283.738281 143.330948,295.318390 139.061707,307.027100 
	C137.517624,311.261932 134.887985,312.290833 130.717834,312.232849 
	C126.525696,312.174530 125.532295,309.622833 124.429146,306.472168 
	C122.507759,300.984528 120.313629,295.592377 118.081200,289.802765 
z"/>
<path fill="#000000" opacity="1.000000" stroke="none" 
	d="
M219.996490,328.375671 
	C186.387970,328.373383 153.278503,328.371277 120.169037,328.364777 
	C118.672050,328.364471 117.174454,328.343628 115.678238,328.297119 
	C114.002922,328.245056 112.753326,327.736115 112.828979,325.696411 
	C112.896988,323.862732 114.175285,323.571136 115.559242,323.493225 
	C118.712952,323.315796 121.870667,323.095642 125.026863,323.093994 
	C160.132828,323.075653 195.238815,323.095581 230.344788,323.105865 
	C231.010269,323.106049 231.680725,323.064178 232.340271,323.129059 
	C234.092941,323.301605 236.251114,322.906799 236.290161,325.706299 
	C236.328568,328.459229 234.330185,328.349823 232.474869,328.361298 
	C228.481888,328.386017 224.488678,328.372772 219.996490,328.375671 
z"/>
<path fill="#000000" opacity="1.000000" stroke="none" 
	d="
M333.000000,323.069946 
	C350.656525,323.187256 367.813049,323.308197 384.969635,323.414368 
	C386.744629,323.425354 388.939758,322.745178 389.161072,325.527069 
	C389.410767,328.665436 386.954620,328.337189 385.020050,328.342224 
	C370.189301,328.380829 355.358429,328.370300 340.527588,328.370605 
	C317.864716,328.371063 295.201843,328.370148 272.538971,328.361420 
	C271.040588,328.360840 269.539825,328.328522 268.044495,328.239014 
	C266.723969,328.159973 265.917175,327.523376 265.812561,326.077576 
	C265.692535,324.419006 266.504333,323.524536 268.026031,323.349213 
	C269.674866,323.159332 271.347504,323.114502 273.009888,323.112335 
	C292.839935,323.086548 312.669952,323.080536 333.000000,323.069946 
z"/>
<path fill="#000000" opacity="1.000000" stroke="none" 
	d="
M299.113251,272.986176 
	C300.883942,275.845764 303.176849,279.215271 300.483490,281.253204 
	C297.938019,283.179230 293.870575,283.320526 291.128632,279.927704 
	C290.270050,278.865326 289.073456,278.083405 287.633026,278.735779 
	C285.917816,279.512604 285.526733,281.119049 285.330841,282.848999 
	C284.931671,286.373749 286.110107,290.077637 284.404175,293.487579 
	C278.007751,291.928040 274.177643,285.981232 275.239807,279.595795 
	C276.471375,272.191925 282.507996,267.406006 289.698517,268.219574 
	C293.261292,268.622681 296.445526,269.918396 299.113251,272.986176 
z"/>
<path fill="#000000" opacity="1.000000" stroke="none" 
	d="
M289.658264,300.584412 
	C292.709320,298.465118 291.415771,295.568695 291.684723,293.047028 
	C291.941101,290.643250 291.279816,288.135651 292.378418,285.449524 
	C297.276672,286.640350 299.984802,289.631042 301.234314,294.080200 
	C302.694092,299.277893 301.826477,304.025848 297.876007,307.858337 
	C292.263611,313.303131 282.071167,312.278381 277.608063,305.873627 
	C276.077148,303.676788 274.168762,300.572021 276.233765,298.679047 
	C278.463501,296.635010 282.212677,296.882294 285.002289,298.807251 
	C286.374695,299.754242 287.379120,301.130310 289.658264,300.584412 
z"/>
<path fill="#000000" opacity="1.000000" stroke="none" 
	d="
M386.079224,271.115692 
	C388.240570,279.520630 387.225830,280.652863 378.974213,280.469635 
	C372.155914,280.318237 365.327454,280.338470 358.510559,280.531586 
	C355.160553,280.626495 353.571014,279.600891 353.636078,276.038147 
	C353.692627,272.943024 353.750946,270.701202 357.953491,270.483978 
	C367.250519,270.003479 376.509308,270.059784 386.079224,271.115692 
z"/>
<path fill="#000000" opacity="1.000000" stroke="none" 
	d="
M365.474792,290.634460 
	C372.089813,286.627075 375.277283,288.265808 375.305267,295.198608 
	C375.324646,300.000244 375.159637,304.808441 375.361511,309.601685 
	C375.520599,313.379364 373.413788,314.022491 370.378479,313.983337 
	C367.529694,313.946564 364.914825,313.742157 364.981659,309.909332 
	C365.091125,303.625793 365.202454,297.342255 365.474792,290.634460 
z"/>
<path fill="#000000" opacity="1.000000" stroke="none" 
	d="
M277.467041,344.651428 
	C278.150543,341.699707 279.481842,341.925171 280.824432,343.717438 
	C281.784302,344.998779 281.943512,346.852386 283.648651,347.719604 
	C285.871368,346.617218 285.008972,342.690155 288.756897,342.530670 
	C289.908905,346.190643 290.424438,349.864380 289.079498,353.756989 
	C286.450928,353.357483 287.221680,351.217590 286.485382,349.627838 
	C285.503693,350.776825 284.597870,351.837006 283.799622,352.771301 
	C281.786591,352.533844 281.857880,350.377136 280.424042,349.795349 
	C279.653046,350.984924 280.530609,352.954407 277.910431,353.711487 
	C277.753235,350.691223 277.604462,347.833130 277.467041,344.651428 
z"/>
<path fill="#000000" opacity="1.000000" stroke="none" 
	d="
M249.327728,330.928711 
	C245.468430,329.232361 244.945068,326.298431 246.195618,323.296753 
	C247.437897,320.314941 250.412369,320.277466 253.097473,321.014404 
	C255.759689,321.745117 256.643158,323.895416 256.222229,326.501617 
	C255.626984,330.187164 253.175079,331.372009 249.327728,330.928711 
z"/>
<path fill="#000000" opacity="1.000000" stroke="none" 
	d="
M327.602783,346.276672 
	C327.164337,341.190033 330.327942,341.858887 333.130157,342.343872 
	C335.936920,342.829620 338.095581,344.458954 336.491913,347.441467 
	C335.299591,349.658875 336.489136,351.546661 336.303467,353.652924 
	C333.479034,354.394043 333.787109,350.772430 333.089539,350.747101 
	C329.571686,350.489136 330.488770,353.665375 328.396057,353.729980 
	C326.631989,351.561462 327.720276,349.029449 327.602783,346.276672 
z"/>
<path fill="#000000" opacity="1.000000" stroke="none" 
	d="
M127.207321,346.008606 
	C127.759628,346.490356 128.165817,346.790222 128.619843,346.967590 
	C130.491913,347.698792 132.499619,348.289948 132.386826,350.899017 
	C132.304382,352.805634 131.306763,354.045868 129.431320,354.340637 
	C127.007210,354.721710 124.604576,354.818024 123.220543,352.201080 
	C125.116051,349.930481 127.870941,354.562592 129.420425,350.743011 
	C127.644333,348.600830 122.670830,349.752563 123.122383,345.278534 
	C123.310791,343.411743 124.815559,342.437378 126.579872,342.207642 
	C128.890991,341.906769 131.051773,342.182129 132.248413,344.289337 
	C130.753876,347.122620 128.180664,342.633820 127.207321,346.008606 
z"/>
<path fill="#000000" opacity="1.000000" stroke="none" 
	d="
M255.950272,351.438110 
	C257.678253,352.025391 259.212646,353.396912 260.516052,350.900238 
	C258.999084,348.458710 253.648956,349.675537 254.603317,344.975189 
	C255.001999,343.011597 256.540833,342.205811 258.237701,342.160706 
	C260.221954,342.108032 262.531464,341.992218 263.252686,344.624268 
	C261.632019,346.482971 259.529266,343.015015 258.174561,345.707916 
	C258.710541,347.570740 260.898132,346.851227 262.111328,347.793610 
	C263.771271,349.083130 264.475311,350.545563 263.393402,352.510925 
	C261.948730,355.135254 259.500885,354.758820 257.241119,354.267792 
	C255.985428,353.994934 253.441696,353.801086 255.950272,351.438110 
z"/>
<path fill="#000000" opacity="1.000000" stroke="none" 
	d="
M304.770294,347.873962 
	C305.917328,345.717224 306.056183,343.304474 308.953400,342.038666 
	C311.355865,345.563934 313.114258,349.235352 313.902008,354.585419 
	C310.156921,351.481323 306.893341,350.119751 303.863037,354.161377 
	C302.367798,351.587402 304.201324,350.024597 304.770294,347.873962 
z"/>
<path fill="#000000" opacity="1.000000" stroke="none" 
	d="
M192.744049,344.336060 
	C195.572830,340.596222 198.480637,342.186554 200.993881,344.041107 
	C203.603836,345.967041 203.901596,348.713928 202.175232,351.537506 
	C200.307770,354.591888 197.354630,354.684326 194.292526,354.291656 
	C192.828110,354.103882 192.579315,352.944214 192.595154,351.696381 
	C192.624557,349.381592 192.654236,347.066803 192.744049,344.336060 
M195.621140,345.794830 
	C195.141968,347.875824 194.529694,349.966492 196.007034,352.008057 
	C198.549805,351.986328 200.568436,350.977875 200.394669,348.378693 
	C200.247482,346.176971 198.992676,344.168488 195.621140,345.794830 
z"/>
<path fill="#000000" opacity="1.000000" stroke="none" 
	d="
M173.162415,354.685974 
	C167.698547,352.539673 166.276199,347.768005 169.319290,342.858246 
	C171.009003,344.070190 170.180695,345.869934 170.371506,347.387634 
	C170.623093,349.389038 170.627670,351.907196 173.114059,352.016663 
	C175.847839,352.137024 175.635712,349.531982 175.820923,347.569153 
	C175.969437,345.995422 175.304565,344.214142 176.909531,342.966339 
	C180.212082,347.962524 178.759140,353.009430 173.162415,354.685974 
z"/>
<path fill="#000000" opacity="1.000000" stroke="none" 
	d="
M355.284912,352.982910 
	C351.792664,353.882355 353.171295,351.177643 352.997955,349.851501 
	C352.663605,347.293549 353.363922,344.419098 348.463654,343.507202 
	C353.023682,341.597839 355.922729,341.503876 359.691254,343.144745 
	C354.852112,345.263245 356.193481,349.342163 355.284912,352.982910 
z"/>
<path fill="#000000" opacity="1.000000" stroke="none" 
	d="
M224.144104,342.803314 
	C224.990067,347.215668 220.240784,349.520386 220.229919,354.036591 
	C219.040390,349.926056 216.824554,346.651703 214.729248,343.026855 
	C217.784760,342.137726 218.152588,344.935822 220.341019,345.411896 
	C221.816330,345.543427 222.183258,343.164093 224.144104,342.803314 
z"/>
<path fill="#000000" opacity="1.000000" stroke="none" 
	d="
M145.693604,343.609497 
	C148.501266,340.825409 151.563004,341.882172 155.945999,343.117249 
	C149.731110,345.121002 152.166245,350.202484 150.463593,353.973511 
	C146.632980,351.365204 151.020309,345.421906 145.693604,343.609497 
z"/>
</svg>